HIERARCHY
ROOT SpineBase
{
  OFFSET 0.000000 0.000000 0.000000
  CHANNELS 6 Xposition Yposition Zposition Zrotation Xrotation Yrotation
  JOINT SpineMid
  {
    OFFSET 0.000000 31.888392 0.000000
    CHANNELS 3 Zrotation Xrotation Yrotation
    JOINT SpineShoulder
    {
      OFFSET 0.422117 23.749413 -0.766732
      CHANNELS 3 Zrotation Xrotation Yrotation
      JOINT Neck
      {
        OFFSET 0.262031 7.880110 -0.570842
        CHANNELS 3 Zrotation Xrotation Yrotation
        JOINT Head
        {
          OFFSET 4.770062 12.982162 3.383557
          CHANNELS 3 Zrotation Xrotation Yrotation
          End Site
          {
            OFFSET 0 0 0
          }
        }
      }
      JOINT ShoulderLeft
      {
        OFFSET -7.291571 -1.861218 -14.000335
        CHANNELS 3 Zrotation Xrotation Yrotation
        JOINT ElbowLeft
        {
          OFFSET -6.011787 -26.474739 -7.346674
          CHANNELS 3 Zrotation Xrotation Yrotation
          JOINT WristLeft
          {
            OFFSET 0.645172 -19.925908 -3.061006
            CHANNELS 3 Zrotation Xrotation Yrotation
            JOINT HandLeft
            {
              OFFSET -0.027057 -8.195834 1.141300
              CHANNELS 3 Zrotation Xrotation Yrotation
              JOINT HandTipLeft
              {
                OFFSET -0.445591 -8.055559 -0.624545
                CHANNELS 3 Zrotation Xrotation Yrotation
                End Site
                {
                  OFFSET 0 0 0
                }
              }
              JOINT ThumbLeft
              {
                OFFSET -4.142809 2.081274 -5.447073
                CHANNELS 3 Zrotation Xrotation Yrotation
                End Site
                {
                  OFFSET 0 0 0
                }
              }
            }
          }
        }
      }
      JOINT ShoulderRight
      {
        OFFSET 7.146700 -4.393139 14.513550
        CHANNELS 3 Zrotation Xrotation Yrotation
        JOINT ElbowRight
        {
          OFFSET 1.153615 -22.889430 -3.408095
          CHANNELS 3 Zrotation Xrotation Yrotation
          JOINT WristRight
          {
            OFFSET 2.127100 -24.780036 11.325534
            CHANNELS 3 Zrotation Xrotation Yrotation
            JOINT HandRight
            {
              OFFSET 0.952407 -5.284735 0.684989
              CHANNELS 3 Zrotation Xrotation Yrotation
              JOINT HandTipRight
              {
                OFFSET 2.548081 -5.905300 -1.784593
                CHANNELS 3 Zrotation Xrotation Yrotation
                End Site
                {
                  OFFSET 0 0 0
                }
              }
              JOINT ThumbRight
              {
                OFFSET 2.635994 2.191145 0.701194
                CHANNELS 3 Zrotation Xrotation Yrotation
                End Site
                {
                  OFFSET 0 0 0
                }
              }
            }
          }
        }
      }
    }
  }
  JOINT HipLeft
  {
    OFFSET -1.984269 1.415532 -8.721543
    CHANNELS 3 Zrotation Xrotation Yrotation
    JOINT KneeLeft
    {
      OFFSET -9.800888 -33.780249 -3.032409
      CHANNELS 3 Zrotation Xrotation Yrotation
      JOINT AnkleLeft
      {
        OFFSET -8.331026 -37.648018 7.710732
        CHANNELS 3 Zrotation Xrotation Yrotation
        JOINT FootLeft
        {
          OFFSET 3.405970 -6.036413 -3.566085
          CHANNELS 3 Zrotation Xrotation Yrotation
          End Site
          {
            OFFSET 0 0 0
          }
        }
      }
    }
  }
  JOINT HipRight
  {
    OFFSET 4.320760 0.423935 2.496711
    CHANNELS 3 Zrotation Xrotation Yrotation
    JOINT KneeRight
    {
      OFFSET 1.495420 -39.473271 4.092909
      CHANNELS 3 Zrotation Xrotation Yrotation
      JOINT AnkleRight
      {
        OFFSET -1.634301 -33.069390 5.551668
        CHANNELS 3 Zrotation Xrotation Yrotation
        JOINT FootRight
        {
          OFFSET 4.519515 -6.245378 -1.529115
          CHANNELS 3 Zrotation Xrotation Yrotation
          End Site
          {
            OFFSET 0 0 0
          }
        }
      }
    }
  }
}
MOTION
Frames: 9
Frame Time: 0.033333
-91.935333 80.174226 307.666202 -8.045994 5.180958 -54.580369 0.263518 0.489025 54.637920 0.221900 0.165844 -0.351714 -3.899221 -3.705398 2.359401 0.000000 0.000000 0.000000 22.527925 8.511361 -6.783441 46.742249 -11.371055 10.781145 19.276364 1.307419 21.747297 -6.954484 16.533226 -27.784369 0.000000 0.000000 0.000000 0.000000 0.000000 0.000000 20.703494 -3.534853 0.173518 52.046262 41.867705 14.422866 3.035828 -20.015458 -8.276291 -18.554268 12.128144 -21.677834 0.000000 0.000000 0.000000 0.000000 0.000000 0.000000 4.407962 0.664807 54.706981 -5.508987 0.153337 -2.531891 9.523849 17.798911 12.959014 0.000000 0.000000 0.000000 -0.071342 6.086016 55.437938 0.555929 -7.981493 -0.601750 -6.370422 10.812159 12.170667 0.000000 0.000000 0.000000
-90.752947 80.235546 307.863568 -8.438515 5.610447 -53.716395 0.039473 0.459796 53.803302 0.396763 0.071328 -0.363074 -4.423074 -2.808403 2.138150 0.000000 0.000000 0.000000 21.449471 8.860406 -6.388343 48.872271 -12.872867 11.983985 21.340295 0.282062 22.771850 -1.272462 19.570745 -34.042341 0.000000 0.000000 0.000000 0.000000 0.000000 0.000000 20.088893 -2.676410 0.365497 50.778228 42.077354 14.945840 5.543430 -20.659599 -5.959814 -21.293040 12.178873 -21.581610 0.000000 0.000000 0.000000 0.000000 0.000000 0.000000 4.757103 0.380302 53.899380 -4.931943 0.108743 -2.506356 16.405656 21.988759 9.569909 0.000000 0.000000 0.000000 -0.037935 5.473762 54.511692 0.644703 -8.153132 -0.704420 -7.315238 10.913276 13.128056 0.000000 0.000000 0.000000
-89.659288 80.279439 308.090777 -8.806159 5.998614 -52.949243 0.090888 0.529505 53.074682 0.340820 0.116161 -0.384595 -4.632050 -2.344616 1.996302 0.000000 0.000000 0.000000 19.477575 9.161311 -5.718204 50.445728 -14.058358 12.597230 23.515489 -0.801591 23.462053 1.071228 20.758493 -36.844612 0.000000 0.000000 0.000000 0.000000 0.000000 0.000000 20.078067 -2.178120 0.515445 50.388485 42.427331 15.342573 4.995096 -19.789609 -6.586170 -22.427282 7.786924 -20.841563 0.000000 0.000000 0.000000 0.000000 0.000000 0.000000 4.849810 0.368999 53.105362 -4.496304 -0.267419 -2.431999 17.653735 22.922069 8.889008 0.000000 0.000000 0.000000 0.023795 4.979487 53.695634 0.682141 -8.289090 -0.803890 -5.536346 14.065934 15.295897 0.000000 0.000000 0.000000
-88.813680 80.271463 308.244841 -8.968687 6.271483 -52.144126 0.190929 0.646643 52.303373 0.377248 0.164177 -0.382053 -5.859931 -1.762557 1.936998 0.000000 0.000000 0.000000 16.783803 9.384215 -4.971988 52.282030 -14.802186 12.768412 21.582829 -1.036963 22.752988 3.374892 18.811201 -35.459561 0.000000 0.000000 0.000000 0.000000 0.000000 0.000000 18.826795 -1.243329 0.639713 50.995569 42.457827 16.129030 4.263946 -19.834533 -6.884050 -24.502891 7.243669 -20.334452 0.000000 0.000000 0.000000 0.000000 0.000000 0.000000 4.858526 0.505119 52.232251 -4.408623 -0.790640 -2.332357 13.344151 21.386844 11.222602 0.000000 0.000000 0.000000 0.083400 4.615465 52.853801 0.418324 -8.374591 -0.954288 -6.227425 14.358501 16.307075 0.000000 0.000000 0.000000
-88.094089 80.247072 308.450354 -9.485225 6.590349 -51.261024 0.128818 0.626956 51.453856 0.368985 0.151708 -0.410500 -5.816024 -1.588203 1.931492 0.000000 0.000000 0.000000 14.859896 9.227073 -4.108703 53.989008 -15.063905 12.465842 20.933429 0.184576 21.423270 3.853999 16.569633 -33.741543 0.000000 0.000000 0.000000 0.000000 0.000000 0.000000 19.317694 -0.784259 0.785215 49.295827 42.831109 16.266541 7.395600 -19.507548 -4.670574 -27.190368 7.231144 -20.673515 0.000000 0.000000 0.000000 0.000000 0.000000 0.000000 5.003990 1.157476 51.232242 -4.573052 -1.607765 -2.205764 13.346885 21.791972 11.313461 0.000000 0.000000 0.000000 0.500594 4.591838 51.988036 0.076127 -8.348873 -1.109139 -6.855469 14.397102 17.118793 0.000000 0.000000 0.000000
-87.604591 80.233627 308.559457 -9.993097 6.985689 -50.379912 0.046029 0.424588 50.593295 0.308509 0.129251 -0.452127 -4.918328 -2.120190 2.023475 0.000000 0.000000 0.000000 13.519621 8.927193 -3.319785 55.260392 -14.978780 11.923497 21.871432 3.783112 18.685597 -0.762491 12.082062 -28.530758 0.000000 0.000000 0.000000 0.000000 0.000000 0.000000 20.082154 -0.850250 0.968682 48.349115 43.605703 15.843931 8.910432 -18.609181 -3.811258 -28.335615 9.249141 -20.617366 0.000000 0.000000 0.000000 0.000000 0.000000 0.000000 5.274068 2.080129 50.188213 -5.148054 -2.717792 -2.058176 14.907194 22.887124 10.574118 0.000000 0.000000 0.000000 1.169895 4.546640 51.128394 -0.273646 -8.163805 -1.232646 -7.411968 14.175436 17.611252 0.000000 0.000000 0.000000
-87.253812 80.204675 308.810691 -10.554817 7.174696 -49.226805 -0.064244 0.244183 49.450382 0.215446 0.090559 -0.499565 -4.500970 -2.276602 2.204374 0.000000 0.000000 0.000000 11.343539 8.851278 -2.318455 58.336613 -14.771448 11.358201 22.330012 8.305137 15.451092 -5.073995 5.877411 -23.109747 0.000000 0.000000 0.000000 0.000000 0.000000 0.000000 20.432552 -0.865888 1.153327 48.606994 44.713209 15.180454 6.882369 -19.221067 -4.470111 -25.879874 8.520921 -19.883422 0.000000 0.000000 0.000000 0.000000 0.000000 0.000000 5.424404 3.165849 48.863372 -5.632903 -3.841078 -1.899789 8.162517 20.419318 14.444531 0.000000 0.000000 0.000000 1.747364 4.622671 49.994419 -0.434571 -7.810706 -1.294117 -7.888698 14.097456 18.176769 0.000000 0.000000 0.000000
-87.119447 80.167033 309.154779 -11.201102 7.080601 -48.136911 -0.201318 0.137224 48.360092 0.091335 -0.002224 -0.554179 -3.611207 -2.445689 2.435868 0.000000 0.000000 0.000000 9.369293 8.757815 -1.328538 61.396139 -14.188261 10.431180 22.786451 12.666236 12.341694 -7.072439 -0.222977 -19.098774 0.000000 0.000000 0.000000 0.000000 0.000000 0.000000 21.050838 -1.042629 1.267187 48.830961 45.901106 14.134198 6.239617 -19.996817 -4.167134 -22.901413 10.439774 -19.630062 0.000000 0.000000 0.000000 0.000000 0.000000 0.000000 5.531875 4.352970 47.630499 -6.021616 -4.555094 -1.799250 -2.104017 14.229760 19.335452 0.000000 0.000000 0.000000 2.204824 5.019563 48.940248 -0.516722 -7.357359 -1.319592 -7.846948 14.065646 18.499907 0.000000 0.000000 0.000000
-87.234846 80.133041 309.527808 -11.984686 6.785256 -47.231013 -0.425063 0.154234 47.456045 -0.081736 -0.088313 -0.619856 -2.545822 -2.826032 2.750501 0.000000 0.000000 0.000000 7.906808 8.503472 -0.390880 64.074076 -13.390977 9.281958 22.773177 17.566575 8.653088 -8.374011 -5.871861 -15.635528 0.000000 0.000000 0.000000 0.000000 0.000000 0.000000 21.936152 -1.392442 1.380589 50.669231 45.432110 14.058697 1.928286 -16.345326 -9.359643 -16.599752 5.892162 -18.161484 0.000000 0.000000 0.000000 0.000000 0.000000 0.000000 5.701258 5.463554 46.646439 -5.994780 -4.537972 -1.737223 -15.628613 3.154917 23.454197 0.000000 0.000000 0.000000 2.639489 5.695671 48.078843 -0.334005 -6.816664 -1.256556 -8.048801 13.851136 18.641432 0.000000 0.000000 0.000000
